<?xml version="1.0" encoding="iso-8859-1"?>
<!-- Generator: Adobe Illustrator 19.0.0, SVG Export Plug-In . SVG Version: 6.00 Build 0)  -->
<svg version="1.1" id="Layer_1" xmlns="http://www.w3.org/2000/svg" xmlns:xlink="http://www.w3.org/1999/xlink" x="0px" y="0px"
	 viewBox="0 0 508 508" style="enable-background:new 0 0 508 508;" xml:space="preserve">
<circle style="fill:#FF7058;" cx="254" cy="254" r="254"/>
<path style="fill:#FFFFFF;" d="M196,346.8h116c3.6-40.4,18-78.8,41.6-112c14.4-20,22.8-44.4,22.8-71.2C376.4,95.2,320.8,40,252,41.2
	C185.6,42,132,96.4,131.2,162.8c0,27.2,8.4,52.8,23.6,73.2C178.8,268.4,192.8,306.8,196,346.8z"/>
<g>
	<path style="fill:#324A5E;" d="M310.8,346.8H197.2c-10,0-18,8-18,18l0,0c0,10,8,18,18,18h113.6c10,0,18-8,18-18l0,0
		C328.8,354.8,320.8,346.8,310.8,346.8z"/>
	<path style="fill:#324A5E;" d="M310.8,394.8H197.2c-10,0-18,8-18,18l0,0c0,10,8,18,18,18h113.6c10,0,18-8,18-18l0,0
		C328.8,402.8,320.8,394.8,310.8,394.8z"/>
	<path style="fill:#324A5E;" d="M200.8,444.8L200.8,444.8c0,12,9.6,22,22,22h62.4c12,0,22-9.6,22-22l0,0H200.8z"/>
</g>
<g>
	<path style="fill:#84DBFF;" d="M164.4,147.6c-2.8-2.8-4.8-6.8-4.8-11.2c0-6.4,4-12,9.6-14.4c-1.6-2.4-2.8-5.6-2.4-9.2
		c0.4-7.6,6-14,13.2-14.8c2.8-0.4,5.2,0,7.6,0.8c-0.4-1.2-0.4-2.4-0.4-3.6c0-8,6.4-14.4,14.4-15.2c5.2-0.4,9.6,1.6,12.8,5.2
		c1.2-7.2,7.6-12.8,15.2-12.8c8.4,0,15.6,6.8,15.6,15.6c0,2.4-0.4,4.8-1.6,6.8c-1.6,3.6-1.2,7.6,0.8,10.8c2.4,3.6,3.6,8,3.6,12.4
		c0,4.8-1.6,9.2-4,12.8c-2.8,4-2.8,8.8,0,12.8c2.4,3.6,4,8,4,12.8s-1.6,9.2-4,12.8c-2.8,4-2.8,8.8,0,12.8c2.4,3.6,4,8,4,12.8
		c0,5.2-2,10-4.8,14c-2.8,3.6-3.2,8.4-0.8,12.4c1.6,2.8,2.4,6,2.4,9.6c0,10.8-8.8,19.2-19.2,19.2c-8.8,0-16.4-6-18.8-14
		c-1.2,0.4-2.8,0.4-4,0.4c-9.6,0.4-18-6.4-19.6-16c-0.4-2.8-0.4-5.6,0.4-8h-0.4c-9.2,0-16.8-7.6-16.8-16.8c0-0.4,0-0.8,0-1.2
		c-8.4-4.8-14-13.6-14-24C152.4,160.8,157.2,152.8,164.4,147.6z"/>
	<path style="fill:#84DBFF;" d="M343.6,147.6c2.8-2.8,4.8-6.8,4.8-11.2c0-6.4-4-12-9.6-14.4c1.6-2.4,2.8-5.6,2.4-9.2
		c-0.4-7.6-6-14-13.2-14.8c-2.8-0.4-5.2,0-7.6,0.8c0.4-1.2,0.4-2.4,0.4-3.6c0-8-6.4-14.4-14.4-15.2c-5.2-0.4-9.6,1.6-12.8,5.2
		c-1.2-7.2-7.6-12.8-15.2-12.8c-8.4,0-15.6,6.8-15.6,15.6c0,2.4,0.4,4.8,1.6,6.8c1.6,3.6,1.2,7.6-0.8,10.8c-2.4,3.6-3.6,8-3.6,12.4
		c0,4.8,1.6,9.2,4,12.8c2.8,4,2.8,8.8,0,12.8c-2.4,3.6-4,8-4,12.8s1.6,9.2,4,12.8c2.8,4,2.8,8.8,0,12.8c-2.4,3.6-4,8-4,12.8
		c0,5.2,2,10,4.8,14c2.8,3.6,3.2,8.4,0.8,12.4c-1.6,2.8-2.4,6-2.4,9.6c0,10.8,8.8,19.2,19.2,19.2c8.8,0,16.4-6,18.8-14
		c1.2,0.4,2.8,0.4,4,0.4c9.6,0.4,18-6.4,19.6-16c0.4-2.8,0.4-5.6-0.4-8h0.4c9.2,0,16.8-7.6,16.8-16.8c0-0.4,0-0.8,0-1.2
		c8.4-4.8,14-13.6,14-24C355.6,160.8,350.8,152.8,343.6,147.6z"/>
</g>
<g>
	<path style="fill:#FFFFFF;" d="M178.4,128.4c1.6,5.6,6.8,9.6,12.8,9.6l0,0c4.4,1.2,7.2,5.2,7.2,9.6c0,4.4-3.2,8.4-7.2,9.6l0,0
		c0,0,0,0-0.4,0l0,0c0,0,0,0-0.4,0l0,0l0,0l0,0l0,0l0,0l0,0l0,0l0,0l0,0l0,0l0,0l0,0l0,0l0,0l0,0l0,0l0,0l0,0l0,0l0,0l0,0l0,0l0,0
		l0,0l0,0l0,0c4.4,1.2,7.2,5.2,7.2,9.6c0,4.4-2.8,8.4-7.2,9.6c-5.6,0.4-10.4,4-12,9.6c-0.4,0.8,0.4,1.6,1.2,2s1.6-0.4,2-1.2
		c1.2-4.4,5.2-7.2,9.6-7.2c4,0,7.2,2,9.2,5.6c-7.2,0.8-13.6,6-15.6,13.2c-0.4,0.8,0.4,1.6,1.2,2s1.6-0.4,2-1.2
		c2-6.4,8-11.2,14.8-11.2s12.8,4.4,14.8,11.2c0.4,0.8,1.2,1.2,2,1.2c0.8-0.4,1.2-1.2,1.2-2c-2-7.6-8.8-12.8-16.8-13.2
		c-1.6-3.6-4.4-6.4-8-7.6c3.2-2.4,5.2-6.4,5.2-10.4c0-4.8-2.4-8.8-6.4-11.2c4-2.4,6.4-6.8,6.4-11.2c0-0.4,0-0.8,0-0.8
		c1.2-4.4,5.2-7.2,9.6-7.2c4.4,0,8.4,2.8,9.6,7.2v0.4c0,4,2.8,8,6.8,9.2c0.8,0.4,1.6-0.4,2-1.2s-0.4-1.6-1.2-2
		c-2.8-0.8-4.4-3.2-4.4-6s2-5.2,4.4-6c0.8-0.4,1.2-1.2,1.2-2s-0.8-1.2-1.6-1.2h-0.4c-2.4,0.8-4,2-5.2,4c-2.4-3.6-6.4-6-11.2-6
		c-4.4,0-8.4,2.4-10.8,5.6c-0.8-2-2.4-4-4.4-5.2c2.8-1.2,5.2-3.2,6.8-6c1.6,2,4,3.6,6.8,3.6c3.6,0,7.2-2.4,8-6
		c0.4-0.8-0.4-1.6-1.2-2s-1.6,0.4-2,1.2c-0.8,2.4-2.8,4-5.2,4s-4.4-1.6-5.2-4c0-0.8-0.8-1.2-1.6-1.2h-0.4h-0.4
		c-0.8,0-1.2,0.4-1.6,1.2c-1.2,4.4-5.2,7.2-9.6,7.2c-4.4,0-8.4-3.2-9.6-7.2c-0.4-0.8-1.2-1.2-2-1.2
		C178.8,126.4,178,127.2,178.4,128.4z"/>
	<path style="fill:#FFFFFF;" d="M195.6,116.8c0.8,0.4,1.6-0.4,2-1.2c1.2-4.4,5.2-7.2,9.6-7.2c4,0,7.6,2.4,9.2,6
		c-4,1.6-7.2,4.8-8.4,8.8c-0.4,0.8,0.4,1.6,1.2,2s1.6-0.4,2-1.2c1.2-4.4,5.2-7.2,9.6-7.2s8.4,3.2,9.6,7.2c0.4,0.8,1.2,1.2,2,1.2
		c0.8-0.4,1.2-1.2,1.2-2c-1.6-5.6-6.8-9.6-12.8-9.6c-0.4,0-0.8,0-1.6,0c-2-5.2-6.8-8.4-12.4-8.4c-6,0-11.2,4-12.8,9.6
		C194,116,194.8,116.8,195.6,116.8z"/>
	<path style="fill:#FFFFFF;" d="M329.6,128.4c-1.6,5.6-6.8,9.6-12.8,9.6l0,0c-4.4,1.2-7.2,5.2-7.2,9.6c0,4.4,3.2,8.4,7.2,9.6l0,0
		c0,0,0,0,0.4,0l0,0c0,0,0,0,0.4,0l0,0l0,0l0,0l0,0l0,0l0,0l0,0l0,0l0,0l0,0l0,0l0,0l0,0l0,0l0,0l0,0l0,0l0,0l0,0l0,0l0,0l0,0l0,0
		l0,0l0,0l0,0c-4.4,1.2-7.2,5.2-7.2,9.6c0,4.4,2.8,8.4,7.2,9.6c5.6,0.4,10.4,4,12,9.6c0.4,0.8-0.4,1.6-1.2,2c-0.8,0.4-1.6-0.4-2-1.2
		c-1.2-4.4-5.2-7.2-9.6-7.2c-4,0-7.2,2-9.2,5.6c7.2,0.8,13.6,6,15.6,13.2c0.4,0.8-0.4,1.6-1.2,2c-0.8,0.4-1.6-0.4-2-1.2
		c-2-6.4-8-11.2-14.8-11.2s-12.8,4.4-14.8,11.2c-0.4,0.8-1.2,1.2-2,1.2c-0.8-0.4-1.2-1.2-1.2-2c2-7.6,8.8-12.8,16.8-13.2
		c1.6-3.6,4.4-6.4,8-7.6c-3.2-2.4-5.2-6.4-5.2-10.4c0-4.8,2.4-8.8,6.4-11.2c-4-2.4-6.4-6.8-6.4-11.2c0-0.4,0-0.8,0-0.8
		c-1.2-4.4-5.2-7.2-9.6-7.2s-8.4,2.8-9.6,7.2v0.4c0,4-2.8,8-6.8,9.2c-0.8,0.4-1.6-0.4-2-1.2s0.4-1.6,1.2-2c2.8-0.8,4.4-3.2,4.4-6
		s-2-5.2-4.4-6c-0.8-0.4-1.2-1.2-1.2-2s0.8-1.2,1.6-1.2h0.4c2.4,0.8,4,2,5.2,4c2.4-3.6,6.4-6,11.2-6c4.4,0,8.4,2.4,10.8,5.6
		c0.8-2,2.4-4,4.4-5.2c-2.8-1.2-5.2-3.2-6.8-6c-1.6,2-4,3.6-6.8,3.6c-3.6,0-7.2-2.4-8-6c-0.4-0.8,0.4-1.6,1.2-2
		c0.8-0.4,1.6,0.4,2,1.2c0.8,2.4,2.8,4,5.2,4c2.4,0,4.4-1.6,5.2-4c0-0.8,0.8-1.2,1.6-1.2h0.4h0.4c0.8,0,1.2,0.4,1.6,1.2
		c1.2,4.4,5.2,7.2,9.6,7.2s8.4-3.2,9.6-7.2c0.4-0.8,1.2-1.2,2-1.2C329.2,126.4,330,127.2,329.6,128.4z"/>
	<path style="fill:#FFFFFF;" d="M312.4,116.8c-0.8,0.4-1.6-0.4-2-1.2c-1.2-4.4-5.2-7.2-9.6-7.2c-4,0-7.6,2.4-9.2,6
		c4,1.6,7.2,4.8,8.4,8.8c0.4,0.8-0.4,1.6-1.2,2c-0.8,0.4-1.6-0.4-2-1.2c-1.2-4.4-5.2-7.2-9.6-7.2s-8.4,3.2-9.6,7.2
		c-0.4,0.8-1.2,1.2-2,1.2c-0.8-0.4-1.2-1.2-1.2-2c1.6-5.6,6.8-9.6,12.8-9.6c0.4,0,0.8,0,1.6,0c2-5.2,6.8-8.4,12.4-8.4
		c6,0,11.2,4,12.8,9.6C314,116,313.2,116.8,312.4,116.8z"/>
</g>
<g>
</g>
<g>
</g>
<g>
</g>
<g>
</g>
<g>
</g>
<g>
</g>
<g>
</g>
<g>
</g>
<g>
</g>
<g>
</g>
<g>
</g>
<g>
</g>
<g>
</g>
<g>
</g>
<g>
</g>
</svg>
