<?xml version="1.0" encoding="iso-8859-1"?>
<!-- Generator: Adobe Illustrator 19.0.0, SVG Export Plug-In . SVG Version: 6.00 Build 0)  -->
<svg version="1.1" id="Layer_1" xmlns="http://www.w3.org/2000/svg" xmlns:xlink="http://www.w3.org/1999/xlink" x="0px" y="0px"
	 viewBox="0 0 508 508" style="enable-background:new 0 0 508 508;" xml:space="preserve">
<circle style="fill:#FD8469;" cx="254" cy="254" r="254"/>
<g>
	<path style="fill:#324A5E;" d="M221.6,375.2l-12.8,29.6h-23.2l56.8-129.2h23.2l56.8,129.2h-23.2l-12.8-29.6L221.6,375.2
		L221.6,375.2z M277.6,354.8L254,301.6l-23.6,53.2L277.6,354.8L277.6,354.8z"/>
	<path style="fill:#324A5E;" d="M286.4,132.8l12.8-29.6h23.2l-56.8,129.6h-23.2l-56.8-129.2h23.2l12.8,29.6h64.8V132.8z
		 M230.4,153.2l23.6,53.2l23.6-53.2H230.4z"/>
</g>
<path style="fill:#FFFFFF;" d="M400.4,345.6H107.6c-4,0-7.2-3.2-7.2-7.2V126c0-4,3.2-7.2,7.2-7.2H400c4,0,7.2,3.2,7.2,7.2v212.4
	C407.6,342.4,404.4,345.6,400.4,345.6z"/>
<path style="fill:#E6E9EE;" d="M423.2,138v-21.2c0-2.4-2-4.4-4.4-4.4H89.2c-2.4,0-4.4,2-4.4,4.4V138c0,2.4,2,4.4,4.4,4.4h329.6
	C421.2,142.4,423.2,140.4,423.2,138z"/>
<path style="fill:#84DBFF;" d="M168.8,199.2h-23.6c-2,0-4-1.6-4-4v-23.6c0-2,1.6-4,4-4h23.6c2,0,4,1.6,4,4v23.6
	C172.4,197.6,170.8,199.2,168.8,199.2z"/>
<path style="fill:#FFD05B;" d="M168.8,256.8h-23.6c-2,0-4-1.6-4-4v-23.6c0-2,1.6-4,4-4h23.6c2,0,4,1.6,4,4v23.6
	C172.4,254.8,170.8,256.8,168.8,256.8z"/>
<path style="fill:#4CDBC4;" d="M168.8,314h-23.6c-2,0-4-1.6-4-4v-23.6c0-2,1.6-4,4-4h23.6c2,0,4,1.6,4,4V310
	C172.4,312.4,170.8,314,168.8,314z"/>
<g>
	<rect x="194.8" y="168" style="fill:#E6E9EE;" width="172" height="8"/>
	<rect x="194.8" y="191.2" style="fill:#E6E9EE;" width="104" height="8"/>
	<rect x="194.8" y="225.6" style="fill:#E6E9EE;" width="172" height="8"/>
	<rect x="194.8" y="248.8" style="fill:#E6E9EE;" width="104" height="8"/>
	<rect x="194.8" y="282.8" style="fill:#E6E9EE;" width="172" height="8"/>
	<rect x="194.8" y="306" style="fill:#E6E9EE;" width="104" height="8"/>
</g>
<g>
</g>
<g>
</g>
<g>
</g>
<g>
</g>
<g>
</g>
<g>
</g>
<g>
</g>
<g>
</g>
<g>
</g>
<g>
</g>
<g>
</g>
<g>
</g>
<g>
</g>
<g>
</g>
<g>
</g>
</svg>
