<?xml version="1.0" encoding="iso-8859-1"?>
<!-- Generator: Adobe Illustrator 19.0.0, SVG Export Plug-In . SVG Version: 6.00 Build 0)  -->
<svg version="1.1" id="Layer_1" xmlns="http://www.w3.org/2000/svg" xmlns:xlink="http://www.w3.org/1999/xlink" x="0px" y="0px"
	 viewBox="0 0 512 512" style="enable-background:new 0 0 512 512;" xml:space="preserve">
<path style="fill:#D29B6E;" d="M118.29,220.69v40.768c0,6.2-4.044,11.676-9.971,13.5l-61.896,19.044
	c-11.852,3.648-19.94,14.599-19.94,26.999v102.723c0,19.501,15.809,35.31,35.31,35.31h17.655h185.379V220.69H118.29z"/>
<path style="fill:#59D8FF;" d="M167.724,326.621c-34.178,0-64.311-17.941-81.629-44.825l-39.672,12.207
	c-11.852,3.647-19.94,14.598-19.94,26.998v102.723c0,19.501,15.809,35.31,35.31,35.31h17.655h185.379V229.517
	C264.828,282.924,221.131,326.621,167.724,326.621z"/>
<g>
	<path style="fill:#00C3F0;" d="M264.828,229.517c0,53.407-43.697,97.103-97.103,97.103c-34.178,0-64.311-17.941-81.629-44.825
		l-17.483,5.379c19.891,34.113,56.776,57.101,99.112,57.101c40.951,0,76.794-21.517,97.103-53.795V229.517z"/>
	<path style="fill:#00C3F0;" d="M176.552,414.897H88.276c-4.875,0-8.828-3.953-8.828-8.828v-41.996
		c0-7.023-2.791-13.76-7.756-18.727l-40.238-40.238c-3.129,4.583-4.971,10.06-4.971,15.893v102.723
		c0,19.501,15.809,35.31,35.31,35.31h17.655h123.586v-17.655C203.034,426.753,191.178,414.897,176.552,414.897z"/>
</g>
<path style="fill:#F0C087;" d="M242.759,158.897h-1.31l-3.104-61.793H98.207v61.793H92.69c-7.313,0-13.241,5.929-13.241,13.241
	v17.655c0,7.313,5.929,13.241,13.241,13.241h8.369l1.434,8.963c1.079,6.742,4.564,12.866,9.81,17.238l28.344,23.62
	c3.807,3.172,8.607,4.91,13.564,4.91h27.029c4.956,0,9.756-1.738,13.564-4.91l28.344-23.62c5.246-4.371,8.73-10.495,9.81-17.238
	l1.434-8.963h8.367c7.313,0,13.241-5.929,13.241-13.241v-17.655C256,164.825,250.071,158.897,242.759,158.897z"/>
<path style="fill:#E6AF78;" d="M238.345,97.103h-88.276H98.207v61.793H92.69c-7.313,0-13.241,5.929-13.241,13.241v17.655
	c0,7.313,5.929,13.241,13.241,13.241h8.369l1.434,8.962c1.079,6.743,4.564,12.866,9.81,17.238l28.344,23.62
	c3.807,3.172,8.607,4.91,13.562,4.91h11.161l-12.584-37.75c-1.8-5.4-2.718-11.055-2.718-16.748v-53.198
	c0-4.875,3.953-8.828,8.828-8.828l0,0c0,0,8.828,0,12.359-4.242c5.38,2.751,11.41,4.242,17.655,4.242
	c6.246,0,12.274-1.491,17.655-4.242c5.38,2.751,11.41,4.242,17.655,4.242c0.888,0,1.754-0.06,2.614-0.158l13.72,0.017
	L238.345,97.103z"/>
<path style="fill:#694B4B;" d="M273.655,95.338c0-9.781-6.665-17.932-15.676-20.37c0.98-2.439,1.551-5.088,1.551-7.879
	c0-11.701-9.485-21.186-21.186-21.186c-0.431,0-0.833,0.102-1.258,0.127c-2.883-8.276-10.67-14.251-19.928-14.251
	c-2.274,0-4.43,0.424-6.47,1.111c-4.522-4.985-10.987-8.173-18.248-8.173c-1.873,0-3.679,0.248-5.432,0.642
	c-5.054-4.745-11.806-7.704-19.285-7.704s-14.231,2.959-19.285,7.704c-1.753-0.394-3.561-0.642-5.432-0.642
	c-6.739,0-12.834,2.713-17.293,7.087c-0.122-0.002-0.238-0.025-0.362-0.025c-9.258,0-17.045,5.976-19.928,14.251
	c-0.425-0.025-0.828-0.127-1.258-0.127c-11.701,0-21.186,9.485-21.186,21.186c0,2.79,0.572,5.439,1.55,7.879
	c-9.01,2.438-15.674,10.589-15.674,20.37c0,5.451,2.116,10.369,5.498,14.124c-3.382,3.754-5.498,8.673-5.498,14.124
	c0,7.841,4.311,14.593,10.652,18.238c0.314,9.474,8.045,17.073,17.597,17.073h7.718c3.452,0,6.398-2.496,6.966-5.901l4.928-29.568
	c0.53,0.04,1.035,0.159,1.575,0.159c7.379,0,13.862-3.78,17.655-9.502c3.794,5.721,10.276,9.502,17.655,9.502
	c7.379,0,13.862-3.78,17.655-9.502c3.794,5.721,10.276,9.502,17.655,9.502s13.862-3.78,17.655-9.502
	c3.794,5.721,10.276,9.502,17.655,9.502c0.538,0,1.045-0.119,1.575-0.159l4.928,29.568c0.568,3.405,3.514,5.901,6.966,5.901h9.483
	c9.75,0,17.655-7.905,17.655-17.655c0-0.183-0.049-0.353-0.054-0.535c5.359-3.823,8.882-10.029,8.882-17.12
	c0-5.451-2.116-10.37-5.499-14.124C271.539,105.707,273.655,100.789,273.655,95.338z"/>
<path style="fill:#5A4146;" d="M162.554,108.204c-8.276-2.883-14.251-10.67-14.251-19.928c0-5.451,2.116-10.37,5.498-14.124
	c-3.382-3.754-5.498-8.673-5.498-14.124c0-9.781,6.665-17.932,15.676-20.37c-0.98-2.439-1.55-5.088-1.55-7.879
	c0-5.442,2.111-10.354,5.483-14.105c-0.064,0-0.122-0.019-0.186-0.019c-7.479,0-14.231,2.959-19.285,7.704
	c-1.753-0.394-3.561-0.642-5.432-0.642c-6.739,0-12.834,2.713-17.293,7.087c-0.122-0.002-0.238-0.025-0.362-0.025
	c-9.258,0-17.045,5.976-19.928,14.251c-0.425-0.025-0.828-0.127-1.258-0.127c-11.701,0-21.186,9.485-21.186,21.186
	c0,2.79,0.572,5.439,1.55,7.879c-9.011,2.438-15.676,10.589-15.676,20.37c0,5.451,2.116,10.369,5.498,14.124
	c-3.382,3.754-5.498,8.673-5.498,14.124c0,7.841,4.311,14.593,10.652,18.238c0.314,9.474,8.045,17.073,17.597,17.073h7.718
	c3.452,0,6.398-2.496,6.966-5.901l4.928-29.568c0.53,0.04,1.035,0.159,1.575,0.159c7.379,0,13.862-3.78,17.655-9.502
	c3.794,5.721,10.276,9.502,17.655,9.502c4.873,0,9.267-1.761,12.843-4.53c-2.419-2.519-4.015-5.82-4.015-9.594
	C162.428,109.031,162.516,108.625,162.554,108.204z"/>
<path style="fill:#E6AF78;" d="M150.069,414.897h26.483c14.626,0,26.483,11.857,26.483,26.483v17.655h-52.966V414.897z"/>
<path style="fill:#D5DCED;" d="M485.517,397.241H220.69c-14.626,0-26.483-11.857-26.483-26.483V211.862
	c0-14.626,11.857-26.483,26.483-26.483h264.828c14.626,0,26.483,11.857,26.483,26.483v158.897
	C512,385.385,500.143,397.241,485.517,397.241z"/>
<path style="fill:#AFB9D2;" d="M406.069,459.034l-15.613-117.092c-1.17-8.771-8.651-15.321-17.501-15.321H333.25
	c-8.849,0-16.331,6.55-17.501,15.321l-15.612,117.092v17.655h105.931V459.034z"/>
<circle style="fill:#FFFFFF;" cx="353.103" cy="273.655" r="17.655"/>
<path style="fill:#F5DCB4;" d="M503.172,494.345H8.828c-4.875,0-8.828-3.953-8.828-8.828v-17.655c0-4.875,3.953-8.828,8.828-8.828
	h494.345c4.875,0,8.828,3.953,8.828,8.828v17.655C512,490.392,508.047,494.345,503.172,494.345z"/>
<g>
</g>
<g>
</g>
<g>
</g>
<g>
</g>
<g>
</g>
<g>
</g>
<g>
</g>
<g>
</g>
<g>
</g>
<g>
</g>
<g>
</g>
<g>
</g>
<g>
</g>
<g>
</g>
<g>
</g>
</svg>
