<?xml version="1.0" encoding="iso-8859-1"?>
<!-- Generator: Adobe Illustrator 19.0.0, SVG Export Plug-In . SVG Version: 6.00 Build 0)  -->
<svg version="1.1" id="Layer_1" xmlns="http://www.w3.org/2000/svg" xmlns:xlink="http://www.w3.org/1999/xlink" x="0px" y="0px"
	 viewBox="0 0 512 512" style="enable-background:new 0 0 512 512;" xml:space="preserve">
<polygon style="fill:#D6CED1;" points="407.254,0 361.743,256 407.254,512 452.765,512 452.765,0 "/>
<polygon style="fill:#ECE7EA;" points="407.258,0 407.258,512 59.235,512 59.235,79.644 116.124,56.889 138.879,0 "/>
<polygon style="fill:#D6CED1;" points="138.879,0 138.879,79.644 59.235,79.644 "/>
<g>
	<path style="fill:#8B7E7F;" d="M350.365,167.822H116.127c-4.714,0-8.533-3.821-8.533-8.533s3.82-8.533,8.533-8.533h234.238
		c4.714,0,8.533,3.821,8.533,8.533S355.079,167.822,350.365,167.822z"/>
	<path style="fill:#8B7E7F;" d="M350.365,304.356H116.127c-4.714,0-8.533-3.821-8.533-8.533s3.82-8.533,8.533-8.533h234.238
		c4.714,0,8.533,3.821,8.533,8.533S355.079,304.356,350.365,304.356z"/>
	<path style="fill:#8B7E7F;" d="M350.365,349.867h-94.364c-4.714,0-8.533-3.821-8.533-8.533s3.82-8.533,8.533-8.533h94.364
		c4.714,0,8.533,3.821,8.533,8.533S355.079,349.867,350.365,349.867z"/>
	<path style="fill:#8B7E7F;" d="M350.365,88.178H173.016c-4.714,0-8.533-3.821-8.533-8.533c0-4.713,3.82-8.533,8.533-8.533h177.349
		c4.714,0,8.533,3.821,8.533,8.533C358.898,84.357,355.079,88.178,350.365,88.178z"/>
	<path style="fill:#8B7E7F;" d="M350.365,213.333h-94.364c-4.714,0-8.533-3.821-8.533-8.533s3.82-8.533,8.533-8.533h94.364
		c4.714,0,8.533,3.821,8.533,8.533S355.079,213.333,350.365,213.333z"/>
	<path style="fill:#8B7E7F;" d="M350.365,258.844h-94.364c-4.714,0-8.533-3.821-8.533-8.533c0-4.713,3.82-8.533,8.533-8.533h94.364
		c4.714,0,8.533,3.821,8.533,8.533C358.898,255.024,355.079,258.844,350.365,258.844z"/>
</g>
<rect x="116.122" y="341.333" style="fill:#F14742;" width="94.364" height="91.022"/>
<g>
	<path style="fill:#8B7E7F;" d="M210.491,258.844h-94.364c-4.714,0-8.533-3.821-8.533-8.533c0-4.713,3.82-8.533,8.533-8.533h94.364
		c4.714,0,8.533,3.821,8.533,8.533C219.025,255.024,215.204,258.844,210.491,258.844z"/>
	<path style="fill:#8B7E7F;" d="M293.476,440.889h-37.475c-4.714,0-8.533-3.821-8.533-8.533s3.82-8.533,8.533-8.533h37.475
		c4.714,0,8.533,3.821,8.533,8.533S298.19,440.889,293.476,440.889z"/>
	<path style="fill:#8B7E7F;" d="M350.365,395.378h-94.364c-4.714,0-8.533-3.821-8.533-8.533s3.82-8.533,8.533-8.533h94.364
		c4.714,0,8.533,3.821,8.533,8.533S355.079,395.378,350.365,395.378z"/>
	<path style="fill:#8B7E7F;" d="M210.491,213.333h-94.364c-4.714,0-8.533-3.821-8.533-8.533s3.82-8.533,8.533-8.533h94.364
		c4.714,0,8.533,3.821,8.533,8.533S215.204,213.333,210.491,213.333z"/>
</g>
<g>
</g>
<g>
</g>
<g>
</g>
<g>
</g>
<g>
</g>
<g>
</g>
<g>
</g>
<g>
</g>
<g>
</g>
<g>
</g>
<g>
</g>
<g>
</g>
<g>
</g>
<g>
</g>
<g>
</g>
</svg>
