<?xml version="1.0" encoding="iso-8859-1"?>
<!-- Generator: Adobe Illustrator 19.0.0, SVG Export Plug-In . SVG Version: 6.00 Build 0)  -->
<svg version="1.1" id="Layer_1" xmlns="http://www.w3.org/2000/svg" xmlns:xlink="http://www.w3.org/1999/xlink" x="0px" y="0px"
	 viewBox="0 0 508 508" style="enable-background:new 0 0 508 508;" xml:space="preserve">
<circle style="fill:#FFD05B;" cx="254" cy="254" r="254"/>
<path style="fill:#FFFFFF;" d="M186.8,88.8V130c0,13.6-11.2,24.8-24.8,24.8h-41.2V394c0,13.6,11.2,24.8,24.8,24.8h216.8
	c13.6,0,24.8-11.2,24.8-24.8V113.6c0-13.6-11.2-24.8-24.8-24.8H186.8z"/>
<path style="fill:#E6E9EE;" d="M186.8,88.8l-66,66.4H162c13.6,0,24.8-11.2,24.8-24.8V88.8z"/>
<g>
	<path style="fill:#84DBFF;" d="M187.6,187.2h-33.2c-2,0-4,1.6-4,4v33.2c0,2,1.6,4,4,4h33.2c2,0,4-1.6,4-4v-33.2
		C191.6,189.2,189.6,187.2,187.6,187.2z M183.6,220.4h-25.2v-25.2h25.2V220.4z"/>
	<path style="fill:#84DBFF;" d="M187.6,256.8h-33.2c-2,0-4,1.6-4,4V294c0,2,1.6,4,4,4h33.2c2,0,4-1.6,4-4v-33.2
		C191.6,258.8,189.6,256.8,187.6,256.8z M183.6,290h-25.2v-25.2h25.2V290z"/>
	<path style="fill:#84DBFF;" d="M187.6,326.4h-33.2c-2,0-4,1.6-4,4v33.2c0,2,1.6,4,4,4h33.2c2,0,4-1.6,4-4v-33.2
		C191.6,328.4,189.6,326.4,187.6,326.4z M183.6,359.6h-25.2v-25.2h25.2V359.6z"/>
</g>
<circle style="fill:#FF7058;" cx="326.4" cy="275.6" r="84.4"/>
<path style="fill:#FFFFFF;" d="M313.2,322.4c-2.4-0.4-4.8-2-6.4-4l-20-26c-3.6-4.4-2.8-11.2,2-14.8c4.4-3.6,11.2-2.8,14.8,2
	l11.2,14.4l38.4-56c3.2-4.8,9.6-6,14.4-2.8s6,10,2.8,14.4L324,318c-2,2.8-5.2,4.4-8.4,4.4C314.8,322.8,314,322.8,313.2,322.4z"/>
<g>
</g>
<g>
</g>
<g>
</g>
<g>
</g>
<g>
</g>
<g>
</g>
<g>
</g>
<g>
</g>
<g>
</g>
<g>
</g>
<g>
</g>
<g>
</g>
<g>
</g>
<g>
</g>
<g>
</g>
</svg>
