<?xml version="1.0" encoding="iso-8859-1"?>
<!-- Generator: Adobe Illustrator 19.0.0, SVG Export Plug-In . SVG Version: 6.00 Build 0)  -->
<svg version="1.1" id="Capa_1" xmlns="http://www.w3.org/2000/svg" xmlns:xlink="http://www.w3.org/1999/xlink" x="0px" y="0px"
	 viewBox="0 0 496.9 496.9" style="enable-background:new 0 0 496.9 496.9;" xml:space="preserve">
<g>
	<g>
		<path d="M453.25,114.5L326.75,2.3c-1.5-1.5-3-2.3-5.3-2.3H48.15c-4.5,0-7.5,3-7.5,7.5v481.9c0,4.5,3,7.5,7.5,7.5h400.6
			c4.5,0,7.5-3,7.5-7.5V119.7C456.25,118.2,454.75,116,453.25,114.5z M329.05,24.1l99.4,88.1h-99.4V24.1z M441.15,481.9H55.65V15.1
			h258.3v104.7c0,4.5,3,7.5,7.5,7.5h119.7V481.9z"/>
	</g>
</g>
<g>
	<g>
		<path d="M270.25,268.1H95.65c-4.5,0-7.5,3-7.5,7.5s3,7.5,7.5,7.5h174.7c4.5,0,7.5-3,7.5-7.5S274.85,268.1,270.25,268.1z"/>
	</g>
</g>
<g>
	<g>
		<path d="M270.25,322.3H95.65c-4.5,0-7.5,3-7.5,7.5s3,7.5,7.5,7.5h174.7c4.5,0,7.5-3,7.5-7.5S274.85,322.3,270.25,322.3z"/>
	</g>
</g>
<g>
	<g>
		<path d="M270.25,376.5H95.65c-4.5,0-7.5,3-7.5,7.5s3,7.5,7.5,7.5h174.7c4.5,0,7.5-3,7.5-7.5S274.85,376.5,270.25,376.5z"/>
	</g>
</g>
<g>
	<g>
		<path d="M270.25,430.7H95.65c-4.5,0-7.5,3-7.5,7.5s3,7.5,7.5,7.5h174.7c4.5,0,7.5-3,7.5-7.5S274.85,430.7,270.25,430.7z"/>
	</g>
</g>
<g>
	<g>
		<path d="M207.05,141.7h-17.3c25.6-3.8,44.4-24.8,44.4-51.2c0-28.6-23.3-52-52-52c-28.7,0-52,23.3-52,52
			c0,26.4,19.6,48.2,44.4,51.2h-17.3c-33.9,0-61.7,27.9-61.7,61.7v12c2.3,4.5,5.3,7.5,9.8,7.5h155.9c4.5,0,7.5-3,7.5-7.5v-12
			C268.75,169.5,240.85,141.7,207.05,141.7z M144.85,90.4c0-20.3,16.6-36.9,36.9-36.9s38.9,16.6,38.9,36.9
			c0,20.3-18.6,36.9-38.9,36.9S144.85,110.7,144.85,90.4z M254.55,207.8h-143.6v-4.5c0-25.6,21.1-46.7,46.7-46.7h50.2
			c25.6,0,46.7,21.1,46.7,46.7V207.8z"/>
	</g>
</g>
<g>
	<g>
		<path d="M423.35,265.6c-1-2.8-3.7-4.8-6.7-4.8h-37l-11.4-35.2c-1-2.8-3.6-4.8-6.7-4.8c-3.1,0-5.8,1.9-6.7,4.8l-11.4,35.2h-37
			c-3.1,0-5.8,1.9-6.7,4.8c-1,2.9,0,6,2.5,7.8l29.9,21.7l-11.4,35.2c-1,2.9,0,6,2.5,7.8c2.4,1.8,5.7,1.8,8.2,0l30-21.7l29.9,21.7
			c1.2,0.9,2.7,1.3,4.1,1.3c1.4,0,2.9-0.4,4.4-1.3c2.4-1.8,3.4-4.9,2.5-7.8l-11.4-35.2l29.9-21.7
			C423.25,271.6,424.25,268.5,423.35,265.6z M378.25,286.8c-2.4,1.8-3.4,4.9-2.5,7.8l6.3,19.5l-16.6-12.1c-2.4-1.8-5.7-1.8-8.2,0
			l-16.6,12.1l6.3-19.5c1-2.9,0-6-2.5-7.8l-16.6-12.1h20.5c3.1,0,5.8-1.9,6.7-4.8l6.3-19.5l6.3,19.5c1,2.8,3.7,4.8,6.7,4.8h20.5
			L378.25,286.8z"/>
	</g>
</g>
<g>
	<g>
		<path d="M423.35,392.1c-1-2.8-3.7-4.8-6.7-4.8h-37l-11.4-35.2c-1-2.8-3.6-4.8-6.7-4.8c-3.1,0-5.8,1.9-6.7,4.8l-11.4,35.2h-37
			c-3.1,0-5.8,1.9-6.7,4.8c-1,2.9,0,6,2.5,7.8l29.9,21.7l-11.4,35.2c-1,2.9,0,6,2.5,7.8c2.4,1.8,5.7,1.8,8.2,0l30-21.7l29.9,21.7
			c1.2,0.9,2.7,1.3,4.1,1.3c1.4,0,2.9-0.4,4.4-1.3c2.4-1.8,3.4-4.9,2.5-7.8l-11.4-35.2l29.9-21.7
			C423.25,398.1,424.25,395,423.35,392.1z M378.25,413.3c-2.4,1.8-3.4,4.9-2.5,7.8l6.3,19.5l-16.6-12.1c-2.4-1.8-5.7-1.8-8.2,0
			l-16.6,12.1l6.3-19.5c1-2.9,0-6-2.5-7.8l-16.6-12.1h20.5c3.1,0,5.8-1.9,6.7-4.8l6.3-19.5l6.3,19.5c1,2.8,3.7,4.8,6.7,4.8h20.5
			L378.25,413.3z"/>
	</g>
</g>
<g>
</g>
<g>
</g>
<g>
</g>
<g>
</g>
<g>
</g>
<g>
</g>
<g>
</g>
<g>
</g>
<g>
</g>
<g>
</g>
<g>
</g>
<g>
</g>
<g>
</g>
<g>
</g>
<g>
</g>
</svg>
