<?xml version="1.0" encoding="iso-8859-1"?>
<!-- Generator: Adobe Illustrator 19.0.0, SVG Export Plug-In . SVG Version: 6.00 Build 0)  -->
<svg version="1.1" id="Layer_1" xmlns="http://www.w3.org/2000/svg" xmlns:xlink="http://www.w3.org/1999/xlink" x="0px" y="0px"
	 viewBox="0 0 508 508" style="enable-background:new 0 0 508 508;" xml:space="preserve">
<circle style="fill:#FFD05B;" cx="254" cy="254" r="254"/>
<path style="fill:#FFFFFF;" d="M406.8,118H135.2c-9.6,0-17.2,7.6-17.2,17.2V346c0,9.6,7.6,17.2,17.2,17.2h271.6
	c9.6,0,17.2-7.6,17.2-17.2V134.8C424,125.6,416.4,118,406.8,118z"/>
<path style="fill:#FF7058;" d="M406.8,108.8H135.2c-9.6,0-17.2,7.6-17.2,17.2v40.8h306V126C424,116.8,416.4,108.8,406.8,108.8z"/>
<g>
	<rect x="234.4" y="183.6" style="fill:#E6E9EE;" width="24.4" height="24.4"/>
	<rect x="283.2" y="183.6" style="fill:#E6E9EE;" width="24.4" height="24.4"/>
	<rect x="332" y="183.6" style="fill:#E6E9EE;" width="24.4" height="24.4"/>
	<rect x="186" y="228" style="fill:#E6E9EE;" width="24.4" height="24.4"/>
	<rect x="234.4" y="228" style="fill:#E6E9EE;" width="24.4" height="24.4"/>
	<rect x="283.2" y="228" style="fill:#E6E9EE;" width="24.4" height="24.4"/>
	<rect x="332" y="228" style="fill:#E6E9EE;" width="24.4" height="24.4"/>
	<rect x="186" y="272.8" style="fill:#E6E9EE;" width="24.4" height="24.4"/>
	<rect x="234.4" y="272.8" style="fill:#E6E9EE;" width="24.4" height="24.4"/>
	<rect x="283.2" y="272.8" style="fill:#E6E9EE;" width="24.4" height="24.4"/>
	<rect x="332" y="272.8" style="fill:#E6E9EE;" width="24.4" height="24.4"/>
	<rect x="186" y="317.2" style="fill:#E6E9EE;" width="24.4" height="24.4"/>
	<rect x="234.4" y="317.2" style="fill:#E6E9EE;" width="24.4" height="24.4"/>
	<rect x="283.2" y="317.2" style="fill:#E6E9EE;" width="24.4" height="24.4"/>
</g>
<path style="fill:#84DBFF;" d="M171.2,231.2L171.2,231.2c-50.8,0-92,41.2-92,92l0,0c0,50.8,41.2,92,92,92l0,0c50.8,0,92-41.2,92-92
	l0,0C263.2,272.4,222,231.2,171.2,231.2z"/>
<path style="fill:#FFFFFF;" d="M171.2,252L171.2,252c-39.2,0-71.2,32-71.2,71.2l0,0c0,39.2,32,71.2,71.2,71.2l0,0
	c39.2,0,71.2-32,71.2-71.2l0,0C242,284,210.4,252,171.2,252z"/>
<path style="fill:#2B3B4E;" d="M168.4,281.2l-3.2,51.2c-0.4,3.2,2,6.4,5.6,6.4s6-2.8,6-6l-3.2-51.6c0-1.2-1.2-2.4-2.4-2.4l0,0
	C169.6,279.2,168.8,280,168.4,281.2z"/>
<path style="fill:#324A5E;" d="M206.4,316.4l-46.8,3.2c-3.2,0.4-5.6,2.8-5.2,5.6c0.4,3.2,3.2,5.2,6.4,4.8l46.4-9.2
	c1.2-0.4,2-1.2,1.6-2.4l0,0C208.4,317.2,207.6,316.4,206.4,316.4z"/>
<circle style="fill:#FF7058;" cx="171.2" cy="323.2" r="8.4"/>
<g>
	<circle style="fill:#E6E9EE;" cx="171.2" cy="263.2" r="5.6"/>
	<circle style="fill:#E6E9EE;" cx="171.2" cy="380.4" r="5.6"/>
	<circle style="fill:#E6E9EE;" cx="229.6" cy="321.6" r="5.6"/>
	<circle style="fill:#E6E9EE;" cx="112.4" cy="321.6" r="5.6"/>
	<circle style="fill:#E6E9EE;" cx="212.4" cy="280.4" r="5.6"/>
	<circle style="fill:#E6E9EE;" cx="129.6" cy="363.2" r="5.6"/>
	<circle style="fill:#E6E9EE;" cx="212.4" cy="363.2" r="5.6"/>
	<circle style="fill:#E6E9EE;" cx="129.6" cy="280.4" r="5.6"/>
</g>
<g>
	<circle style="fill:#FFFFFF;" cx="348.4" cy="138.8" r="12.4"/>
	<circle style="fill:#FFFFFF;" cx="194" cy="138.8" r="12.4"/>
</g>
<g>
</g>
<g>
</g>
<g>
</g>
<g>
</g>
<g>
</g>
<g>
</g>
<g>
</g>
<g>
</g>
<g>
</g>
<g>
</g>
<g>
</g>
<g>
</g>
<g>
</g>
<g>
</g>
<g>
</g>
</svg>
