<?xml version="1.0" encoding="iso-8859-1"?>
<!-- Generator: Adobe Illustrator 19.0.0, SVG Export Plug-In . SVG Version: 6.00 Build 0)  -->
<svg version="1.1" id="Layer_1" xmlns="http://www.w3.org/2000/svg" xmlns:xlink="http://www.w3.org/1999/xlink" x="0px" y="0px"
	 viewBox="0 0 508 508" style="enable-background:new 0 0 508 508;" xml:space="preserve">
<circle style="fill:#84DBFF;" cx="254" cy="254" r="254"/>
<path style="fill:#FFFFFF;" d="M371.2,422H136.8c-9.6,0-17.2-7.6-17.2-17.2v-302c0-9.6,7.6-17.2,17.2-17.2h234.4
	c9.6,0,17.2,7.6,17.2,17.2v302.4C388.4,414.4,380.8,422,371.2,422z"/>
<path style="fill:#FF7058;" d="M388.4,139.2v-36.4c0-9.2-7.6-16.8-16.8-16.8H136.4c-9.2,0-16.8,7.6-16.8,16.8v36.4
	C119.6,139.2,388.4,139.2,388.4,139.2z"/>
<g>
	<circle style="fill:#FFFFFF;" cx="358.8" cy="112.4" r="12"/>
	<circle style="fill:#FFFFFF;" cx="326.4" cy="112.4" r="12"/>
	<circle style="fill:#FFFFFF;" cx="294" cy="112.4" r="12"/>
</g>
<g>
	<path style="fill:#4CDBC4;" d="M208.4,235.6h-57.2c-2.4,0-4-2-4-4V174c0-2.4,2-4,4-4h57.2c2.4,0,4,2,4,4v57.2
		C212.4,233.6,210.8,235.6,208.4,235.6z M155.2,227.2H204v-48.8h-48.8V227.2z"/>
	<path style="fill:#4CDBC4;" d="M208.4,325.6h-57.2c-2.4,0-4-2-4-4v-57.2c0-2.4,2-4,4-4h57.2c2.4,0,4,2,4,4v57.2
		C212.4,324,210.8,325.6,208.4,325.6z M155.2,317.2H204v-48.8h-48.8V317.2z"/>
</g>
<g>
	<rect x="234" y="170" style="fill:#E6E9EE;" width="127.2" height="7.6"/>
	<rect x="234" y="187.2" style="fill:#E6E9EE;" width="127.2" height="7.6"/>
	<rect x="234" y="204.8" style="fill:#E6E9EE;" width="127.2" height="7.6"/>
	<rect x="234" y="222.4" style="fill:#E6E9EE;" width="71.2" height="7.6"/>
	<rect x="234" y="260" style="fill:#E6E9EE;" width="127.2" height="7.6"/>
	<rect x="234" y="277.6" style="fill:#E6E9EE;" width="127.2" height="7.6"/>
	<rect x="234" y="294.8" style="fill:#E6E9EE;" width="127.2" height="7.6"/>
	<rect x="234" y="312.4" style="fill:#E6E9EE;" width="71.2" height="7.6"/>
</g>
<g>
	<path style="fill:#324A5E;" d="M172.4,218c-0.8,0-1.6-0.8-2.4-1.6l-7.6-10c-1.2-1.6-1.2-4.4,0.8-5.6c1.6-1.2,4.4-1.2,5.6,0.8
		l4.4,5.6l14.4-21.2c1.2-2,3.6-2.4,5.6-1.2s2.4,3.6,1.2,5.6l-17.6,26c-0.8,1.2-2,1.6-3.2,1.6C173.2,218,172.8,218,172.4,218z"/>
	<path style="fill:#324A5E;" d="M172.4,309.6c-0.8,0-1.6-0.8-2.4-1.6l-7.6-10c-1.2-1.6-1.2-4.4,0.8-5.6c1.6-1.2,4.4-1.2,5.6,0.8
		l4.4,5.6l14.4-21.2c1.2-2,3.6-2.4,5.6-1.2c2,1.2,2.4,3.6,1.2,5.6l-17.6,26c-0.8,1.2-2,1.6-3.2,1.6
		C173.2,310,172.8,309.6,172.4,309.6z"/>
</g>
<g>
</g>
<g>
</g>
<g>
</g>
<g>
</g>
<g>
</g>
<g>
</g>
<g>
</g>
<g>
</g>
<g>
</g>
<g>
</g>
<g>
</g>
<g>
</g>
<g>
</g>
<g>
</g>
<g>
</g>
</svg>
