<?xml version="1.0" encoding="iso-8859-1"?>
<!-- Generator: Adobe Illustrator 19.0.0, SVG Export Plug-In . SVG Version: 6.00 Build 0)  -->
<svg version="1.1" id="Layer_1" xmlns="http://www.w3.org/2000/svg" xmlns:xlink="http://www.w3.org/1999/xlink" x="0px" y="0px"
	 viewBox="0 0 508 508" style="enable-background:new 0 0 508 508;" xml:space="preserve">
<circle style="fill:#FFD05B;" cx="254" cy="254" r="254"/>
<path style="fill:#FFFFFF;" d="M375.6,88.8h-190v52.8c0,5.2-4.4,9.6-9.6,9.6h-53.2v258.4c0,5.2,4.4,9.6,9.6,9.6h243.2
	c5.2,0,9.6-4.4,9.6-9.6V98.4C385.2,93.2,380.8,88.8,375.6,88.8z"/>
<path style="fill:#E6E9EE;" d="M122.8,151.2h52.8c5.2,0,9.6-4.4,9.6-9.6V88.8L122.8,151.2z"/>
<path style="fill:#FF7058;" d="M193.6,186c-1.2,1.2-2.4,2.4-3.6,3.6c-1.2,1.2-2.4,2.4-3.6,3.6c-1.2,1.2-2.4,2.4-3.2,4
	c-1.2,1.2-2,2.8-3.2,4c-0.8,1.2-2,2.8-2.8,4s-1.6,2.8-2.8,4.4c-0.8,1.6-1.6,2.8-2.4,4.4c-0.8,1.6-1.6,2.8-2.4,4.4
	c-0.4,1.2-0.8,2-1.2,3.2c-0.4-0.8-1.2-1.2-1.6-2c-2-2.4-4.4-4.8-6.8-7.2c-0.8-0.8-1.6-1.6-2.4-2.4l-3.6,1.6
	c13.2,12,14.8,25.2,14.8,25.2s10.8-29.6,27.6-39.2V184C195.6,184.4,194.4,185.2,193.6,186z"/>
<path style="fill:#84DBFF;" d="M193.6,256.4c-1.2,1.2-2.4,2.4-3.6,3.6c-1.2,1.2-2.4,2.4-3.6,3.6c-1.2,1.2-2.4,2.4-3.2,4
	c-1.2,1.2-2,2.8-3.2,4c-0.8,1.2-2,2.8-2.8,4s-1.6,2.8-2.8,4.4c-0.8,1.6-1.6,2.8-2.4,4.4c-0.8,1.6-1.6,2.8-2.4,4.4
	c-0.4,1.2-0.8,2-1.2,3.2c-0.4-0.8-1.2-1.2-1.6-2c-2-2.4-4.4-4.8-6.8-7.2c-0.8-0.8-1.6-1.6-2.4-2.4l-3.6,1.2
	c13.2,12,14.8,25.2,14.8,25.2s10.8-29.6,27.6-39.2V254C195.6,254.8,194.4,255.6,193.6,256.4z"/>
<path style="fill:#4CDBC4;" d="M193.6,326.4c-1.2,1.2-2.4,2.4-3.6,3.6c-1.2,1.2-2.4,2.4-3.6,3.6c-1.2,1.2-2.4,2.4-3.2,4
	c-1.2,1.2-2,2.8-3.2,4c-0.8,1.2-2,2.8-2.8,4s-1.6,2.8-2.8,4.4c-0.8,1.6-1.6,2.8-2.4,4.4c-0.8,1.6-1.6,2.8-2.4,4.4
	c-0.4,1.2-0.8,2-1.2,3.2c-0.4-0.8-1.2-1.2-1.6-2c-2-2.4-4.4-4.8-6.8-7.2c-0.8-0.8-1.6-1.6-2.4-2.4L154,352
	c13.2,12,14.8,25.2,14.8,25.2s10.8-29.6,27.6-39.2v-13.6C195.6,324.8,194.4,325.6,193.6,326.4z"/>
<g>
	<rect x="227.2" y="183.6" style="fill:#E6E9EE;" width="129.6" height="10.4"/>
	<rect x="227.2" y="204.8" style="fill:#E6E9EE;" width="80.8" height="10.4"/>
	<rect x="227.2" y="258.8" style="fill:#E6E9EE;" width="129.6" height="10.4"/>
	<rect x="227.2" y="280" style="fill:#E6E9EE;" width="80.8" height="10.4"/>
	<rect x="227.2" y="334" style="fill:#E6E9EE;" width="129.6" height="10.4"/>
	<rect x="227.2" y="355.2" style="fill:#E6E9EE;" width="80.8" height="10.4"/>
</g>
<g>
</g>
<g>
</g>
<g>
</g>
<g>
</g>
<g>
</g>
<g>
</g>
<g>
</g>
<g>
</g>
<g>
</g>
<g>
</g>
<g>
</g>
<g>
</g>
<g>
</g>
<g>
</g>
<g>
</g>
</svg>
