<?xml version="1.0" encoding="iso-8859-1"?>
<!-- Generator: Adobe Illustrator 19.0.0, SVG Export Plug-In . SVG Version: 6.00 Build 0)  -->
<svg version="1.1" id="Layer_1" xmlns="http://www.w3.org/2000/svg" xmlns:xlink="http://www.w3.org/1999/xlink" x="0px" y="0px"
	 viewBox="0 0 508 508" style="enable-background:new 0 0 508 508;" xml:space="preserve">
<circle style="fill:#84DBFF;" cx="254" cy="254" r="254"/>
<path style="fill:#FFFFFF;" d="M374.4,88.8H131.2c-5.2,0-9.6,4.4-9.6,9.6v311.2c0,5.2,4.4,9.6,9.6,9.6h243.2c5.2,0,9.6-4.4,9.6-9.6
	V98.4C384,93.2,379.6,88.8,374.4,88.8z"/>
<g>
	<rect x="275.6" y="126" style="fill:#E6E9EE;" width="64.8" height="12"/>
	<rect x="234.4" y="163.2" style="fill:#E6E9EE;" width="106" height="12"/>
	<rect x="275.6" y="200.8" style="fill:#E6E9EE;" width="64.8" height="12"/>
	<rect x="256" y="238" style="fill:#E6E9EE;" width="84.4" height="12"/>
	<rect x="231.2" y="275.2" style="fill:#E6E9EE;" width="109.2" height="12"/>
	<rect x="165.2" y="126" style="fill:#E6E9EE;" width="104.4" height="12"/>
	<rect x="165.2" y="163.2" style="fill:#E6E9EE;" width="63.2" height="12"/>
	<rect x="165.2" y="200.8" style="fill:#E6E9EE;" width="104.4" height="12"/>
	<rect x="165.2" y="238" style="fill:#E6E9EE;" width="84.4" height="12"/>
	<rect x="165.2" y="275.2" style="fill:#E6E9EE;" width="60" height="12"/>
</g>
<rect x="300.442" y="206.401" transform="matrix(-0.7071 -0.7071 0.7071 -0.7071 374.3137 719.8467)" style="fill:#FF7058;" width="71.599" height="151.999"/>
<rect x="372.117" y="200.302" transform="matrix(-0.7071 0.7071 -0.7071 -0.7071 819.9457 132.5714)" style="fill:#E6E9EE;" width="20.8" height="71.599"/>
<path style="fill:#F1543F;" d="M415.2,254l21.6-21.6c3.2-3.2,3.2-8.4,0-12L398,181.6c-3.2-3.2-8.4-3.2-12,0l-21.6,21.6L415.2,254z"
	/>
<polygon style="fill:#FFD05B;" points="256.8,310.8 238.4,380 307.6,361.6 "/>
<polygon style="fill:#324A5E;" points="244.4,357.6 238.4,380 260.8,374 "/>
<g>
</g>
<g>
</g>
<g>
</g>
<g>
</g>
<g>
</g>
<g>
</g>
<g>
</g>
<g>
</g>
<g>
</g>
<g>
</g>
<g>
</g>
<g>
</g>
<g>
</g>
<g>
</g>
<g>
</g>
</svg>
